<?xml version="1.0" encoding="UTF-8" standalone="no"?>
<!-- Generator: Adobe Illustrator 13.0.0, SVG Export Plug-In . SVG Version: 6.00 Build 14948)  -->

<svg
        version="1.0"
        id="Layer_1"
        x="0px"
        y="0px"
        width="693.615px"
        height="419.375px"
        viewBox="0 0 693.615 419.375"
        enable-background="new 0 0 693.615 419.375"
        xml:space="preserve"
        sodipodi:docname="Star_Wars_Logo.svg"
        inkscape:version="1.1 (c68e22c387, 2021-05-23)"
        xmlns:inkscape="http://www.inkscape.org/namespaces/inkscape"
        xmlns:sodipodi="http://sodipodi.sourceforge.net/DTD/sodipodi-0.dtd"
        xmlns="http://www.w3.org/2000/svg"
><defs
   id="defs888" /><sodipodi:namedview
   id="namedview886"
   pagecolor="#ffffff"
   bordercolor="#666666"
   borderopacity="1.0"
   inkscape:pageshadow="2"
   inkscape:pageopacity="0.0"
   inkscape:pagecheckerboard="0"
   showgrid="false"
   inkscape:zoom="2.2966632"
   inkscape:cx="346.8075"
   inkscape:cy="208.78116"
   inkscape:window-width="2560"
   inkscape:window-height="1411"
   inkscape:window-x="-9"
   inkscape:window-y="-9"
   inkscape:window-maximized="1"
   inkscape:current-layer="Layer_2" />

<g
   id="Layer_2">
	<g
   id="g862">
		<path
   fill="#FFE81F"
   d="M148.718,221.207l8.67,25.461c4.691,13.768,8.879,24.779,9.425,24.779c0.009,0,0.017-0.004,0.024-0.01    c0.6-0.53,17.57-49.811,17.57-49.811h32.89l-39.68,115.619h-22.86c0,0-24.4-70.471-24.3-70.739l-25.47,69.851h-22.63    l-39.18-115.15l32.73,0.021c0,0,17.929,50.821,18.168,50.821c0.001,0,0.001-0.001,0.002-0.002l17.89-50.841H148.718 M32.003,213.2    l3.601,10.584l39.18,115.149l1.845,5.424h5.729h22.63h5.598l1.918-5.26l17.685-48.5c1.524,4.434,3.171,9.213,4.818,13.988    c6.089,17.655,12.191,35.277,12.191,35.277l1.864,5.383h5.696h22.86h5.712l1.854-5.403l39.68-115.618l3.637-10.598h-11.204h-32.89    h-5.706l-1.858,5.396c-2.974,8.635-6.921,20.031-10.296,29.676c-0.509-1.463-1.039-3.001-1.587-4.611l-8.669-25.46l-1.846-5.421    h-5.727h-36.75h-5.666l-1.881,5.345l-10.453,29.706c-3.453-9.706-7.456-21.017-10.516-29.691l-1.882-5.334l-5.657-0.004    l-32.73-0.021L32.003,213.2L32.003,213.2z"
   id="path860" />
	</g>
	<g
   id="g866">
		<path
   fill="#FFE81F"
   d="M655.258,220.758l-0.075,30.305c0,0-32.643-0.109-49.239-0.109c-5.521,0-9.266,0.013-9.444,0.045    c-2.86,0.521-4.681,6.602-3.87,9.271c0.399,1.35,3.391,5.76,6.63,9.81c3.229,4.051,8.54,10.681,11.78,14.729    c8.319,10.381,9.46,12.43,10.229,18.391c1.25,9.681-3.329,20.16-11.829,27.07c-8.518,6.93-8.145,6.979-71.383,6.979    c-0.916,0-1.835,0-2.777,0c-38.46-0.01-58.8-0.329-61.761-0.989c-5.26-1.19-13.64-8.03-35.79-29.28    c-7.967-7.636-15.309-14.322-15.686-14.324c-0.01,0-0.015,0.006-0.015,0.016l-0.261,44.579l-35.899-0.159l-0.221-114.98h45.271    h34.79c24.13,0.871,40.46,24.91,37.21,40.24c-0.74,3.479-2.62,8.521-4.181,11.2c-3.21,5.5-11.38,12.56-18.011,15.591    c-2.449,1.108-4.449,2.398-4.449,2.858c0,1.71,8.061,9.649,11.08,10.91c2.579,1.079,10.09,1.319,43.21,1.319    c3.882,0,7.408,0.002,10.608,0.002c33.293,0,31.618-0.24,34.19-5.741c1.801-3.83,0.431-6.12-12.239-20.39    c-16.051-15.971-14.37-23.621-14.48-29.271c-0.229-6.77,5.102-28.069,32.812-28.069L655.258,220.758 M440.188,273.878    c15.37,0,18.49-0.239,21.761-1.66c11.04-4.8,11.63-18.979,1.04-25.271c-2.319-1.381-5.3-1.609-21.96-1.7l-19.279-0.101    c0.159,0.15-0.061,27.57-0.061,27.57S426.518,273.878,440.188,273.878 M663.277,212.758h-8.021h-73.8    c-16.032,0-25.515,6.328-30.646,11.637c-8.347,8.633-10.313,19.504-10.162,24.629c0.008,0.427,0.003,0.865-0.002,1.322    c-0.073,8.329,1.154,17.758,16.659,33.246c3.065,3.452,8.193,9.239,10.131,12.115c-4.238,0.521-14.98,0.521-26.262,0.521h-4.792    l-5.816-0.002c-19.904,0-36.688-0.057-40.128-0.736c-0.481-0.314-1.156-0.854-1.898-1.498c6.877-4.235,13.83-10.799,17.104-16.412    c1.987-3.413,4.178-9.243,5.098-13.568c2.04-9.625-1.325-21.236-9.001-31.068c-8.956-11.471-21.985-18.334-35.746-18.83    l-0.145-0.006h-0.145h-34.79h-45.271h-8.016l0.016,8.017l0.221,114.979l0.016,7.949l7.949,0.035l35.899,0.159l7.988,0.035    l0.047-7.988l0.155-26.706c0.733,0.696,1.491,1.419,2.269,2.165c24.227,23.24,32.359,29.679,39.562,31.308    c1.979,0.441,5.253,1.172,63.523,1.188h2.779c31.546,0,47.38,0,56.799-0.91c10.789-1.043,14.259-3.49,19.461-7.725l0.173-0.141    c10.685-8.687,16.323-21.83,14.715-34.3c-1.048-8.11-3.194-11.479-11.922-22.368l-2.594-3.24    c-3.04-3.799-6.713-8.387-9.175-11.475c-1.986-2.484-3.546-4.689-4.487-6.133c1.236-0.003,2.841-0.005,4.918-0.005    c16.395,0,48.887,0.108,49.213,0.11l8.008,0.026l0.02-8.008l0.075-30.306L663.277,212.758L663.277,212.758z M429.739,265.586    c0.013-2.021,0.025-4.287,0.038-6.557c0.01-2,0.019-4.004,0.022-5.84l11.187,0.058c6.429,0.035,16.103,0.088,17.989,0.623    c2.407,1.461,3.75,3.72,3.604,6.06c-0.08,1.264-0.682,3.588-3.821,4.951c-1.75,0.76-4.54,0.997-18.57,0.997    C435.738,265.878,432.305,265.749,429.739,265.586L429.739,265.586z"
   id="path864" />
	</g>
	<g
   id="g870">
		<path
   fill="#FFE81F"
   d="M312.908,220.287l40.29,115.92l-32.83,0.15l-5.45-17.41l-58.7-0.471l-5.18,17.431l-32.5-0.341    l39.78-115.229L312.908,220.287 M286.507,237.283c-0.083,0.333-5.144,14.219-10.222,28.104c-5.12,14-10.257,28-10.328,28.109    c0,0.001-0.001,0.001,0,0.001l0,0c0,0,0,0,0-0.001c0.136-0.04,18.316-0.08,29.968-0.08c5.453,0,9.475,0.009,9.55,0.029    c0.001,0.004,0.001,0.005,0.001,0.005s0-0.001,0-0.003c0,0,0,0-0.001-0.002C305.271,292.916,286.566,237.959,286.507,237.283    c0.001-0.004,0.001-0.006,0.001-0.006l0,0C286.507,237.277,286.507,237.279,286.507,237.283 M318.595,212.282l-5.693,0.005    l-54.59,0.051l-5.696,0.005l-1.859,5.386l-39.78,115.229l-3.623,10.494l11.102,0.115l32.5,0.341l6.033,0.063l1.719-5.782    l3.466-11.662l46.854,0.375l3.708,11.848l1.765,5.638l5.907-0.026l32.829-0.15l11.195-0.052l-3.676-10.574l-40.29-115.92    L318.595,212.282L318.595,212.282z M277.472,285.424c1.515-4.129,3.556-9.71,6.327-17.289c0.869-2.376,1.664-4.551,2.393-6.545    c0.663,1.956,1.385,4.084,2.169,6.398c0.646,1.906,3.485,10.27,5.92,17.428C287.041,285.416,281.591,285.417,277.472,285.424    L277.472,285.424z"
   id="path868" />
	</g>
	<g
   id="g874">
		<path
   fill="#FFE81F"
   d="M326.488,81.928v28.6h-57.28v87.47h-34.15v-87.54l-66.86,0.19c-8.06,0-9.14,6.42-9.14,8.88    c0,3.02,1.97,6.04,12.79,19.74c7.02,8.9,13.47,17.78,14.32,19.72c4.64,10.68-1.36,27.32-12.29,34.08    c-7.79,4.813-6.459,4.931-64.308,4.931c-2.974,0-6.096,0-9.392,0h-62.27v-32.13h97.9l2.89-2.01c1.95-1.36,3.08-3.23,3.51-5.79    c0.6-3.68,0.29-4.16-11.8-17.78c-14.29-16.1-15.8-19.04-15.06-29.32c0.84-11.73,11.3-28.77,29.58-28.77L326.488,81.928     M334.488,73.916l-8.013,0.012l-181.56,0.27c-10.458,0-20.171,4.518-27.342,12.722c-5.814,6.652-9.63,15.429-10.206,23.477    c-0.973,13.511,2.137,18.393,17.056,35.202c4.33,4.877,8.447,9.516,9.821,11.486c-0.022,0.079-0.042,0.13-0.054,0.159    c-0.015,0.012-0.038,0.03-0.07,0.052l-0.822,0.572H37.908h-8v8v32.13v8h8h62.27h4.937h4.455c28.522,0,42.6-0.027,50.894-0.635    c9.49-0.695,12.518-2.323,17.054-5.14l0.566-0.351c14.262-8.821,21.612-29.827,15.422-44.074    c-1.91-4.358-14.003-19.746-15.376-21.486c-3.796-4.807-10.062-12.74-11.054-15.036c0.024-0.193,0.071-0.393,0.121-0.532    c0.165-0.042,0.481-0.098,1.001-0.098l58.86-0.167v79.517v8h8h34.15h8v-8v-79.47h49.28h8v-8v-28.6V73.916L334.488,73.916z"
   id="path872" />
	</g>
	<g
   id="g878">
		<path
   fill="#FFE81F"
   d="M419.548,82.857l40.18,116.22l-32.77-0.18l-5.32-17.41l-58.439-0.26l-5.221,16.77h-33.369l39.739-115.14    H419.548 M372.737,156.478l39.801-0.05c0.001,0,0.001,0.001,0.001,0.001c0.136,0-19.342-57.201-19.472-57.241l0,0    C392.925,99.183,372.288,156.478,372.737,156.478 M425.247,74.857h-5.699h-55.2h-5.701l-1.86,5.39l-39.74,115.141l-3.662,10.61    h11.225h33.37h5.889l1.75-5.623l3.461-11.121l46.632,0.207l3.599,11.774l1.721,5.629l5.887,0.033l32.77,0.18l11.297,0.062    l-3.691-10.676l-40.18-116.22L425.247,74.857L425.247,74.857z M383.851,148.464c2.468-7.027,5.904-16.657,9.014-25.312    c2.948,8.644,6.209,18.245,8.588,25.29L383.851,148.464L383.851,148.464z"
   id="path876" />
	</g>
	<g
   id="g882">
		<path
   fill="#FFE81F"
   d="M532.396,82.857c25.921,0,43.91,0.37,47.37,0.97c8,1.39,15.23,5.66,20.65,12.22    c5.67,6.86,6.97,10.14,7.71,19.54c1.061,13.27-5.25,24.72-17.7,32.15c-3.63,2.17-7.359,4.28-8.29,4.7    c-1.43,0.65-1.239,1.27,1.32,4.27c1.649,1.93,4.51,4.68,6.35,6.11l3.36,2.61l62.08,0.89l0.609,31.68h-38.061    c-29.439,0-38.86-0.27-41.62-1.2c-4.13-1.4-14.069-9.82-34.271-29.04l-14.42-13.72l0.152,43.96h-37.043V82.857H532.396     M526.938,134.627h19.671c19.141,0,19.739-0.06,22.47-2.11c4.881-3.66,6.609-7.43,6.091-13.22c-0.53-5.97-2.83-9.08-8.601-11.58    c-3.25-1.42-6.381-1.65-21.721-1.65h-17.91V134.627 M532.396,74.857h-41.8h-8v8v115.14v8h8h37.043h8.028l-0.028-8.028    l-0.088-25.216l0.84,0.799c24.986,23.773,32.356,29.173,37.218,30.821c3.733,1.259,9.982,1.624,44.188,1.624h38.061h8.154    l-0.156-8.154l-0.609-31.68l-0.148-7.734l-7.734-0.111l-59.402-0.851l-1.245-0.967c-0.396-0.309-0.876-0.717-1.389-1.179    c0.446-0.264,0.854-0.507,1.207-0.717c15.003-8.953,22.866-23.407,21.569-39.653c-0.863-10.959-2.82-15.896-9.52-24    c-6.584-7.969-15.621-13.298-25.447-15.005C575.678,74.999,548.257,74.857,532.396,74.857L532.396,74.857z M534.938,114.067h9.91    c14.027,0,16.806,0.233,18.518,0.981c3.25,1.408,3.58,2.091,3.835,4.957c0.256,2.848-0.097,3.994-2.922,6.112    c-0.093,0.069-0.164,0.123-0.223,0.166c-1.865,0.345-8.786,0.345-17.447,0.345h-11.67L534.938,114.067L534.938,114.067z"
   id="path880" />
	</g>
<path
   style="fill:#000000;stroke:#000000;stroke-width:2.87332"
   d="m 37.881045,182.04198 v -15.93142 h 48.909745 48.90974 l 2.32872,-1.63281 c 3.16494,-2.21912 4.47828,-4.69421 4.25193,-8.01304 -0.20348,-2.98343 -0.72235,-3.7162 -10.58958,-14.95506 -15.14525,-17.25058 -16.68674,-20.04091 -16.17047,-29.27087 0.70538,-12.610634 9.05996,-24.211343 20.41226,-28.343341 l 3.18148,-1.157991 33.74461,-0.275626 c 18.55953,-0.151594 60.63688,-0.300511 93.50522,-0.330925 l 59.76062,-0.0553 v 14.150965 14.150968 h -28.51964 -28.51964 v 43.75913 43.75914 h -16.98116 -16.98115 v -43.75914 -43.75913 h -33.98722 c -24.31788,0 -34.55722,0.14353 -35.99076,0.5045 -3.60784,0.90846 -6.21953,4.56723 -6.21953,8.71308 0,2.26976 1.68231,5.20154 6.95882,12.12722 20.58468,27.01843 20.23325,26.50507 21.16988,30.92513 2.28699,10.7925 -3.90508,24.43908 -13.89756,30.6286 -3.71272,2.29972 -6.19845,3.14367 -11.18324,3.79689 -2.4936,0.32677 -23.33933,0.55276 -63.897047,0.69273 l -60.196028,0.20773 z"
   id="path1527" /><path
   style="fill:#000000;stroke:#000000;stroke-width:2.87332"
   d="m 427.02408,198.44007 c -0.0928,-0.17961 -1.30574,-4.06671 -2.69539,-8.638 l -2.52665,-8.31144 -29.20372,-0.27238 c -16.06206,-0.14982 -29.28523,-0.19089 -29.38485,-0.0913 -0.0996,0.0996 -1.33283,3.84735 -2.74048,8.3283 -1.40765,4.48095 -2.62775,8.21557 -2.71134,8.29915 -0.0836,0.0836 -7.51335,0.1006 -16.51058,0.0378 l -16.35861,-0.11417 18.24446,-52.90284 C 353.17137,115.6787 362.0918,89.862617 362.9601,87.406192 l 1.57871,-4.466226 27.47548,0.112083 27.47548,0.112084 19.72319,57.039277 c 10.84775,31.3716 19.83223,57.38216 19.9655,57.80125 0.2278,0.71633 -0.72298,0.76197 -15.87166,0.76197 -8.86268,0 -16.18991,-0.14695 -16.28272,-0.32656 z M 406.68933,138.5706 c -5.58435,-16.58915 -12.73217,-37.53711 -13.33426,-39.078431 -0.16801,-0.430081 -0.52571,0.02565 -1.04744,1.334491 -2.05709,5.16056 -18.86681,52.43534 -19.39985,54.55915 l -0.28754,1.14563 h 20.05759 20.05759 z"
   id="path1566" /><path
   style="fill:#000000;stroke:#000000;stroke-width:2.87332"
   d="M 490.71192,140.35716 V 82.818525 l 41.25551,0.26402 c 22.69053,0.145211 43.12706,0.459179 45.41451,0.697706 7.60713,0.793244 13.68211,3.57568 19.39413,8.882813 8.21513,7.632806 11.08487,14.185206 11.10827,25.363216 0.0159,7.6183 -1.72395,13.26602 -5.88198,19.09299 -3.4555,4.84244 -7.58876,8.21212 -15.717,12.81343 -2.1553,1.22008 -4.19466,2.38122 -4.53193,2.5803 -0.40769,0.24066 -0.51916,0.73662 -0.33262,1.47989 0.34143,1.36036 6.14401,7.39896 9.4364,9.82023 l 2.39478,1.76116 30.8672,0.47491 c 16.97696,0.26121 30.91069,0.52882 30.96384,0.5947 0.0532,0.0659 0.21059,7.14956 0.34987,15.74149 l 0.25322,15.62171 -37.53058,-0.25341 c -22.18648,-0.1498 -38.4897,-0.43273 -39.87655,-0.69202 -4.09155,-0.76497 -8.3241,-3.83255 -20.73097,-15.02497 -4.07112,-3.67263 -12.49639,-11.51148 -18.72282,-17.41969 l -11.32077,-10.74218 -0.11284,22.01049 -0.11285,22.01049 h -18.28341 -18.28341 z m 76.85063,-6.78069 c 3.42276,-1.8995 6.19036,-5.02973 7.18244,-8.12353 0.72532,-2.26191 0.63765,-7.20039 -0.17725,-9.98439 -0.36397,-1.24345 -1.24618,-2.966 -1.96046,-3.82787 -1.75669,-2.11968 -6.57888,-4.58804 -10.06961,-5.15439 -1.60216,-0.25994 -9.88634,-0.45774 -19.24947,-0.45962 l -16.43689,-0.003 v 14.39688 14.39687 l 19.48479,-0.13705 c 19.18744,-0.13497 19.51137,-0.15181 21.22645,-1.10361 z"
   id="path1605" /><path
   style="fill:#000000;stroke:#000000;stroke-width:2.87332"
   d="m 396.62385,336.90237 -10.27082,-0.12484 -0.28798,-14.43203 c -0.15839,-7.93762 -0.28797,-33.69979 -0.28797,-57.24926 V 222.279 l 40.82009,0.003 c 26.21018,0.002 41.83304,0.16578 43.65028,0.45727 12.29604,1.97237 23.62933,10.59962 29.42428,22.39869 4.60699,9.38027 4.52691,16.59117 -0.29614,26.66487 -2.78489,5.81669 -10.29121,12.87641 -17.58966,16.54314 -4.1238,2.07179 -5.44268,3.06217 -5.44268,4.08706 0,1.0046 6.7354,7.95532 9.38209,9.68201 1.26033,0.82224 2.74295,1.27408 5.20487,1.58622 5.02316,0.63687 55.58428,1.03053 68.17669,0.53081 13.04598,-0.51773 14.13778,-0.83009 15.86437,-4.53881 1.24902,-2.68291 1.36161,-4.62236 0.38155,-6.57249 -1.35844,-2.70306 -6.29524,-8.72775 -13.61747,-16.61828 -9.00115,-9.69976 -12.2037,-15.59376 -12.91372,-23.76656 -1.11729,-12.86072 6.34139,-24.88493 18.20414,-29.34705 6.31821,-2.37656 7.13327,-2.41641 49.42411,-2.41641 h 38.97643 l -0.28159,3.3313 c -0.15488,1.83222 -0.2816,8.60677 -0.2816,15.05457 v 11.72326 l -29.28162,-0.1338 c -22.18514,-0.10138 -29.50584,-0.007 -30.20684,0.38882 -1.11063,0.62735 -2.5558,3.57024 -2.9693,6.04653 -0.55475,3.32222 0.42708,4.85645 14.0003,21.87737 14.11917,17.70553 14.72295,18.82798 14.66917,27.27086 -0.0355,5.5801 -1.20066,9.84478 -3.97276,14.54147 -2.25575,3.82185 -6.95463,8.74611 -10.80007,11.3181 -3.76837,2.52044 -6.57846,3.28507 -14.90001,4.05432 -6.68616,0.61808 -105.41765,0.64289 -113.36575,0.0285 -5.88402,-0.45483 -7.77741,-1.20845 -13.01376,-5.17981 -5.49262,-4.16572 -9.39613,-7.66156 -25.26186,-22.62361 -12.35821,-11.6543 -16.99136,-15.8545 -17.48879,-15.8545 -0.19545,0 -0.35537,4.37669 -0.35537,9.72599 0,5.34929 -0.12951,15.34204 -0.2878,22.20613 l -0.2878,12.48014 -7.22309,-0.10059 c -3.97271,-0.0553 -11.84497,-0.15676 -17.49392,-0.22542 z m 59.22612,-63.25675 c 6.59453,-0.69451 10.97222,-3.30417 13.44551,-8.01526 0.98863,-1.88312 1.15773,-2.74455 1.15932,-5.90573 0.002,-4.46984 -0.89053,-6.74316 -3.92007,-9.98198 -3.37634,-3.60959 -4.64281,-4.00785 -14.06781,-4.4239 -4.46964,-0.1973 -13.26995,-0.36761 -19.55625,-0.37847 l -11.42962,-0.0197 v 13.92496 13.92496 l 0.97968,0.24411 c 3.84311,0.95761 26.26468,1.38137 33.38924,0.63104 z"
   id="path1644" /><path
   style="fill:#000000;stroke:#000000;stroke-width:2.87332"
   d="m 318.73525,330.57212 c -0.99635,-3.16417 -2.22036,-7.04889 -2.72,-8.63269 l -0.90844,-2.87965 -3.52559,-0.2745 c -1.93908,-0.15097 -15.2245,-0.27567 -29.52316,-0.27711 l -25.99757,-0.003 -0.94635,3.15675 c -0.52049,1.73621 -1.66236,5.58879 -2.53747,8.56127 l -1.59113,5.40452 -15.87356,-0.10332 c -8.73045,-0.0568 -15.95349,-0.18325 -16.05119,-0.28095 -0.0977,-0.0977 8.71706,-25.94663 19.58835,-57.44207 l 19.766,-57.26442 27.21502,0.002 27.21502,0.002 19.97496,57.49092 c 10.98623,31.62001 19.90134,57.55384 19.81135,57.63073 -0.09,0.0769 -7.34585,0.25753 -16.12414,0.40141 l -15.96054,0.26161 z m -13.18793,-37.42944 c -0.9654,-2.54211 -18.60929,-54.88229 -18.60929,-55.20401 0,-0.23109 -0.15474,-0.42017 -0.34387,-0.42017 -0.18913,0 -0.99663,1.81242 -1.79444,4.02759 -0.79781,2.21517 -5.34555,14.66434 -10.10607,27.66482 -4.76053,13.00049 -8.65551,23.82597 -8.65551,24.05664 0,0.26279 7.41518,0.4194 19.85794,0.4194 15.70631,0 19.81472,-0.11379 19.65124,-0.54427 z"
   id="path1683" /><path
   style="fill:#000000;stroke:#000000;stroke-width:2.87332"
   d="m 154.56835,336.13004 c -1.01126,-2.65982 -23.04782,-66.79116 -23.31147,-67.84161 -0.37037,-1.4757 -0.88918,-1.81417 -1.27633,-0.83269 -0.46854,1.18781 -23.75984,64.97562 -24.48292,67.0513 l -0.64464,1.85051 -11.170989,-0.003 -11.17099,-0.003 -19.34293,-56.92771 C 52.529469,248.11418 43.739427,222.24938 43.634654,221.94709 c -0.151616,-0.43743 3.11752,-0.5263 16.017029,-0.43541 l 16.207526,0.1142 1.398997,3.91873 c 0.769448,2.1553 4.799177,13.47063 8.954954,25.14518 4.155773,11.67454 7.673751,21.22644 7.817725,21.22644 0.143974,0 4.262689,-11.36641 9.152695,-25.25868 l 8.89093,-25.25869 18.30461,0.11351 18.30461,0.11351 0.75811,2.17707 c 0.41697,1.19739 3.23243,9.42672 6.25659,18.2874 5.81438,17.03589 10.45692,29.39047 11.04422,29.39047 0.44456,0 4.40672,-11.00995 15.12088,-42.01748 l 2.55766,-7.40204 16.20756,-0.11416 c 8.91417,-0.0628 16.2077,0.0352 16.20784,0.21771 1.5e-4,0.18252 -8.86001,26.14649 -19.68923,57.6977 l -19.68951,57.36583 H 166.2219 154.98594 Z"
   id="path1722" /></g>
</svg>
